<svg viewBox="0 0 256 128"  xmlns="http://www.w3.org/2000/svg" >
  <rect x="0"  y="0"  width="256"  height="128"  fill="#191919"  stroke="none" />
  <circle id="light_0_0"  cx="4.0"  cy="4.0"  r="2.4"  fill="#2d2d2d"  stroke="none" />
  <circle id="light_1_0"  cx="12.0"  cy="4.0"  r="2.4"  fill="#2effee"  stroke="none" />
  <circle id="light_2_0"  cx="20.0"  cy="4.0"  r="2.4"  fill="#2d2d2d"  stroke="none" />
  <circle id="light_3_0"  cx="28.0"  cy="4.0"  r="2.4"  fill="#2d2d2d"  stroke="none" />
  <circle id="light_4_0"  cx="36.0"  cy="4.0"  r="2.4"  fill="#2d2d2d"  stroke="none" />
  <circle id="light_5_0"  cx="44.0"  cy="4.0"  r="2.4"  fill="#2effee"  stroke="none" />
  <circle id="light_6_0"  cx="52.0"  cy="4.0"  r="2.4"  fill="#2d2d2d"  stroke="none" />
  <circle id="light_7_0"  cx="60.0"  cy="4.0"  r="2.4"  fill="#2d2d2d"  stroke="none" />
  <circle id="light_8_0"  cx="68.0"  cy="4.0"  r="2.4"  fill="#2d2d2d"  stroke="none" />
  <circle id="light_9_0"  cx="76.0"  cy="4.0"  r="2.4"  fill="#2effee"  stroke="none" />
  <circle id="light_10_0"  cx="84.0"  cy="4.0"  r="2.4"  fill="#2d2d2d"  stroke="none" />
  <circle id="light_11_0"  cx="92.0"  cy="4.0"  r="2.4"  fill="#2d2d2d"  stroke="none" />
  <circle id="light_12_0"  cx="100.0"  cy="4.0"  r="2.4"  fill="#2effee"  stroke="none" />
  <circle id="light_13_0"  cx="108.0"  cy="4.0"  r="2.4"  fill="#2d2d2d"  stroke="none" />
  <circle id="light_14_0"  cx="116.0"  cy="4.0"  r="2.4"  fill="#2effee"  stroke="none" />
  <circle id="light_15_0"  cx="124.0"  cy="4.0"  r="2.4"  fill="#2d2d2d"  stroke="none" />
  <circle id="light_16_0"  cx="132.0"  cy="4.0"  r="2.4"  fill="#2d2d2d"  stroke="none" />
  <circle id="light_17_0"  cx="140.0"  cy="4.0"  r="2.4"  fill="#2effee"  stroke="none" />
  <circle id="light_18_0"  cx="148.0"  cy="4.0"  r="2.4"  fill="#2d2d2d"  stroke="none" />
  <circle id="light_19_0"  cx="156.0"  cy="4.0"  r="2.4"  fill="#2d2d2d"  stroke="none" />
  <circle id="light_20_0"  cx="164.0"  cy="4.0"  r="2.4"  fill="#2d2d2d"  stroke="none" />
  <circle id="light_21_0"  cx="172.0"  cy="4.0"  r="2.4"  fill="#2effee"  stroke="none" />
  <circle id="light_22_0"  cx="180.0"  cy="4.0"  r="2.4"  fill="#2d2d2d"  stroke="none" />
  <circle id="light_23_0"  cx="188.0"  cy="4.0"  r="2.4"  fill="#2d2d2d"  stroke="none" />
  <circle id="light_24_0"  cx="196.0"  cy="4.0"  r="2.4"  fill="#2effee"  stroke="none" />
  <circle id="light_25_0"  cx="204.0"  cy="4.0"  r="2.4"  fill="#2effee"  stroke="none" />
  <circle id="light_26_0"  cx="212.0"  cy="4.0"  r="2.4"  fill="#2d2d2d"  stroke="none" />
  <circle id="light_27_0"  cx="220.0"  cy="4.0"  r="2.4"  fill="#2d2d2d"  stroke="none" />
  <circle id="light_28_0"  cx="228.0"  cy="4.0"  r="2.4"  fill="#2effee"  stroke="none" />
  <circle id="light_29_0"  cx="236.0"  cy="4.0"  r="2.4"  fill="#2effee"  stroke="none" />
  <circle id="light_30_0"  cx="244.0"  cy="4.0"  r="2.4"  fill="#2d2d2d"  stroke="none" />
  <circle id="light_31_0"  cx="252.0"  cy="4.0"  r="2.4"  fill="#2d2d2d"  stroke="none" />
  <circle id="light_0_1"  cx="4.0"  cy="12.0"  r="2.4"  fill="#2effee"  stroke="none" />
  <circle id="light_1_1"  cx="12.0"  cy="12.0"  r="2.4"  fill="#2effee"  stroke="none" />
  <circle id="light_2_1"  cx="20.0"  cy="12.0"  r="2.4"  fill="#2d2d2d"  stroke="none" />
  <circle id="light_3_1"  cx="28.0"  cy="12.0"  r="2.4"  fill="#2d2d2d"  stroke="none" />
  <circle id="light_4_1"  cx="36.0"  cy="12.0"  r="2.4"  fill="#2effee"  stroke="none" />
  <circle id="light_5_1"  cx="44.0"  cy="12.0"  r="2.4"  fill="#2effee"  stroke="none" />
  <circle id="light_6_1"  cx="52.0"  cy="12.0"  r="2.4"  fill="#2d2d2d"  stroke="none" />
  <circle id="light_7_1"  cx="60.0"  cy="12.0"  r="2.4"  fill="#2d2d2d"  stroke="none" />
  <circle id="light_8_1"  cx="68.0"  cy="12.0"  r="2.4"  fill="#2d2d2d"  stroke="none" />
  <circle id="light_9_1"  cx="76.0"  cy="12.0"  r="2.4"  fill="#2effee"  stroke="none" />
  <circle id="light_10_1"  cx="84.0"  cy="12.0"  r="2.4"  fill="#2d2d2d"  stroke="none" />
  <circle id="light_11_1"  cx="92.0"  cy="12.0"  r="2.4"  fill="#2d2d2d"  stroke="none" />
  <circle id="light_12_1"  cx="100.0"  cy="12.0"  r="2.4"  fill="#2effee"  stroke="none" />
  <circle id="light_13_1"  cx="108.0"  cy="12.0"  r="2.4"  fill="#2d2d2d"  stroke="none" />
  <circle id="light_14_1"  cx="116.0"  cy="12.0"  r="2.4"  fill="#2effee"  stroke="none" />
  <circle id="light_15_1"  cx="124.0"  cy="12.0"  r="2.4"  fill="#2d2d2d"  stroke="none" />
  <circle id="light_16_1"  cx="132.0"  cy="12.0"  r="2.4"  fill="#2effee"  stroke="none" />
  <circle id="light_17_1"  cx="140.0"  cy="12.0"  r="2.4"  fill="#2effee"  stroke="none" />
  <circle id="light_18_1"  cx="148.0"  cy="12.0"  r="2.4"  fill="#2d2d2d"  stroke="none" />
  <circle id="light_19_1"  cx="156.0"  cy="12.0"  r="2.4"  fill="#2d2d2d"  stroke="none" />
  <circle id="light_20_1"  cx="164.0"  cy="12.0"  r="2.4"  fill="#2d2d2d"  stroke="none" />
  <circle id="light_21_1"  cx="172.0"  cy="12.0"  r="2.4"  fill="#2effee"  stroke="none" />
  <circle id="light_22_1"  cx="180.0"  cy="12.0"  r="2.4"  fill="#2d2d2d"  stroke="none" />
  <circle id="light_23_1"  cx="188.0"  cy="12.0"  r="2.4"  fill="#2d2d2d"  stroke="none" />
  <circle id="light_24_1"  cx="196.0"  cy="12.0"  r="2.4"  fill="#2d2d2d"  stroke="none" />
  <circle id="light_25_1"  cx="204.0"  cy="12.0"  r="2.4"  fill="#2d2d2d"  stroke="none" />
  <circle id="light_26_1"  cx="212.0"  cy="12.0"  r="2.4"  fill="#2effee"  stroke="none" />
  <circle id="light_27_1"  cx="220.0"  cy="12.0"  r="2.4"  fill="#2d2d2d"  stroke="none" />
  <circle id="light_28_1"  cx="228.0"  cy="12.0"  r="2.4"  fill="#2d2d2d"  stroke="none" />
  <circle id="light_29_1"  cx="236.0"  cy="12.0"  r="2.4"  fill="#2d2d2d"  stroke="none" />
  <circle id="light_30_1"  cx="244.0"  cy="12.0"  r="2.4"  fill="#2effee"  stroke="none" />
  <circle id="light_31_1"  cx="252.0"  cy="12.0"  r="2.4"  fill="#2d2d2d"  stroke="none" />
  <circle id="light_0_2"  cx="4.0"  cy="20.0"  r="2.4"  fill="#2d2d2d"  stroke="none" />
  <circle id="light_1_2"  cx="12.0"  cy="20.0"  r="2.4"  fill="#2effee"  stroke="none" />
  <circle id="light_2_2"  cx="20.0"  cy="20.0"  r="2.4"  fill="#2d2d2d"  stroke="none" />
  <circle id="light_3_2"  cx="28.0"  cy="20.0"  r="2.4"  fill="#2d2d2d"  stroke="none" />
  <circle id="light_4_2"  cx="36.0"  cy="20.0"  r="2.4"  fill="#2d2d2d"  stroke="none" />
  <circle id="light_5_2"  cx="44.0"  cy="20.0"  r="2.4"  fill="#2effee"  stroke="none" />
  <circle id="light_6_2"  cx="52.0"  cy="20.0"  r="2.4"  fill="#2d2d2d"  stroke="none" />
  <circle id="light_7_2"  cx="60.0"  cy="20.0"  r="2.4"  fill="#2d2d2d"  stroke="none" />
  <circle id="light_8_2"  cx="68.0"  cy="20.0"  r="2.4"  fill="#2d2d2d"  stroke="none" />
  <circle id="light_9_2"  cx="76.0"  cy="20.0"  r="2.4"  fill="#2d2d2d"  stroke="none" />
  <circle id="light_10_2"  cx="84.0"  cy="20.0"  r="2.4"  fill="#2d2d2d"  stroke="none" />
  <circle id="light_11_2"  cx="92.0"  cy="20.0"  r="2.4"  fill="#2d2d2d"  stroke="none" />
  <circle id="light_12_2"  cx="100.0"  cy="20.0"  r="2.4"  fill="#2effee"  stroke="none" />
  <circle id="light_13_2"  cx="108.0"  cy="20.0"  r="2.4"  fill="#2effee"  stroke="none" />
  <circle id="light_14_2"  cx="116.0"  cy="20.0"  r="2.4"  fill="#2effee"  stroke="none" />
  <circle id="light_15_2"  cx="124.0"  cy="20.0"  r="2.4"  fill="#2d2d2d"  stroke="none" />
  <circle id="light_16_2"  cx="132.0"  cy="20.0"  r="2.4"  fill="#2d2d2d"  stroke="none" />
  <circle id="light_17_2"  cx="140.0"  cy="20.0"  r="2.4"  fill="#2effee"  stroke="none" />
  <circle id="light_18_2"  cx="148.0"  cy="20.0"  r="2.4"  fill="#2d2d2d"  stroke="none" />
  <circle id="light_19_2"  cx="156.0"  cy="20.0"  r="2.4"  fill="#2d2d2d"  stroke="none" />
  <circle id="light_20_2"  cx="164.0"  cy="20.0"  r="2.4"  fill="#2d2d2d"  stroke="none" />
  <circle id="light_21_2"  cx="172.0"  cy="20.0"  r="2.4"  fill="#2d2d2d"  stroke="none" />
  <circle id="light_22_2"  cx="180.0"  cy="20.0"  r="2.4"  fill="#2d2d2d"  stroke="none" />
  <circle id="light_23_2"  cx="188.0"  cy="20.0"  r="2.4"  fill="#2d2d2d"  stroke="none" />
  <circle id="light_24_2"  cx="196.0"  cy="20.0"  r="2.4"  fill="#2d2d2d"  stroke="none" />
  <circle id="light_25_2"  cx="204.0"  cy="20.0"  r="2.4"  fill="#2d2d2d"  stroke="none" />
  <circle id="light_26_2"  cx="212.0"  cy="20.0"  r="2.4"  fill="#2effee"  stroke="none" />
  <circle id="light_27_2"  cx="220.0"  cy="20.0"  r="2.4"  fill="#2d2d2d"  stroke="none" />
  <circle id="light_28_2"  cx="228.0"  cy="20.0"  r="2.4"  fill="#2d2d2d"  stroke="none" />
  <circle id="light_29_2"  cx="236.0"  cy="20.0"  r="2.4"  fill="#2d2d2d"  stroke="none" />
  <circle id="light_30_2"  cx="244.0"  cy="20.0"  r="2.4"  fill="#2effee"  stroke="none" />
  <circle id="light_31_2"  cx="252.0"  cy="20.0"  r="2.4"  fill="#2d2d2d"  stroke="none" />
  <circle id="light_0_3"  cx="4.0"  cy="28.0"  r="2.4"  fill="#2d2d2d"  stroke="none" />
  <circle id="light_1_3"  cx="12.0"  cy="28.0"  r="2.4"  fill="#2effee"  stroke="none" />
  <circle id="light_2_3"  cx="20.0"  cy="28.0"  r="2.4"  fill="#2d2d2d"  stroke="none" />
  <circle id="light_3_3"  cx="28.0"  cy="28.0"  r="2.4"  fill="#2d2d2d"  stroke="none" />
  <circle id="light_4_3"  cx="36.0"  cy="28.0"  r="2.4"  fill="#2d2d2d"  stroke="none" />
  <circle id="light_5_3"  cx="44.0"  cy="28.0"  r="2.4"  fill="#2effee"  stroke="none" />
  <circle id="light_6_3"  cx="52.0"  cy="28.0"  r="2.4"  fill="#2d2d2d"  stroke="none" />
  <circle id="light_7_3"  cx="60.0"  cy="28.0"  r="2.4"  fill="#2d2d2d"  stroke="none" />
  <circle id="light_8_3"  cx="68.0"  cy="28.0"  r="2.4"  fill="#2d2d2d"  stroke="none" />
  <circle id="light_9_3"  cx="76.0"  cy="28.0"  r="2.4"  fill="#2effee"  stroke="none" />
  <circle id="light_10_3"  cx="84.0"  cy="28.0"  r="2.4"  fill="#2d2d2d"  stroke="none" />
  <circle id="light_11_3"  cx="92.0"  cy="28.0"  r="2.4"  fill="#2d2d2d"  stroke="none" />
  <circle id="light_12_3"  cx="100.0"  cy="28.0"  r="2.4"  fill="#2d2d2d"  stroke="none" />
  <circle id="light_13_3"  cx="108.0"  cy="28.0"  r="2.4"  fill="#2d2d2d"  stroke="none" />
  <circle id="light_14_3"  cx="116.0"  cy="28.0"  r="2.4"  fill="#2effee"  stroke="none" />
  <circle id="light_15_3"  cx="124.0"  cy="28.0"  r="2.4"  fill="#2d2d2d"  stroke="none" />
  <circle id="light_16_3"  cx="132.0"  cy="28.0"  r="2.4"  fill="#2d2d2d"  stroke="none" />
  <circle id="light_17_3"  cx="140.0"  cy="28.0"  r="2.4"  fill="#2effee"  stroke="none" />
  <circle id="light_18_3"  cx="148.0"  cy="28.0"  r="2.4"  fill="#2d2d2d"  stroke="none" />
  <circle id="light_19_3"  cx="156.0"  cy="28.0"  r="2.4"  fill="#2d2d2d"  stroke="none" />
  <circle id="light_20_3"  cx="164.0"  cy="28.0"  r="2.4"  fill="#2d2d2d"  stroke="none" />
  <circle id="light_21_3"  cx="172.0"  cy="28.0"  r="2.4"  fill="#2effee"  stroke="none" />
  <circle id="light_22_3"  cx="180.0"  cy="28.0"  r="2.4"  fill="#2d2d2d"  stroke="none" />
  <circle id="light_23_3"  cx="188.0"  cy="28.0"  r="2.4"  fill="#2d2d2d"  stroke="none" />
  <circle id="light_24_3"  cx="196.0"  cy="28.0"  r="2.4"  fill="#2d2d2d"  stroke="none" />
  <circle id="light_25_3"  cx="204.0"  cy="28.0"  r="2.4"  fill="#2effee"  stroke="none" />
  <circle id="light_26_3"  cx="212.0"  cy="28.0"  r="2.4"  fill="#2d2d2d"  stroke="none" />
  <circle id="light_27_3"  cx="220.0"  cy="28.0"  r="2.4"  fill="#2d2d2d"  stroke="none" />
  <circle id="light_28_3"  cx="228.0"  cy="28.0"  r="2.4"  fill="#2d2d2d"  stroke="none" />
  <circle id="light_29_3"  cx="236.0"  cy="28.0"  r="2.4"  fill="#2effee"  stroke="none" />
  <circle id="light_30_3"  cx="244.0"  cy="28.0"  r="2.4"  fill="#2d2d2d"  stroke="none" />
  <circle id="light_31_3"  cx="252.0"  cy="28.0"  r="2.4"  fill="#2d2d2d"  stroke="none" />
  <circle id="light_0_4"  cx="4.0"  cy="36.0"  r="2.4"  fill="#2effee"  stroke="none" />
  <circle id="light_1_4"  cx="12.0"  cy="36.0"  r="2.4"  fill="#2effee"  stroke="none" />
  <circle id="light_2_4"  cx="20.0"  cy="36.0"  r="2.4"  fill="#2effee"  stroke="none" />
  <circle id="light_3_4"  cx="28.0"  cy="36.0"  r="2.4"  fill="#2d2d2d"  stroke="none" />
  <circle id="light_4_4"  cx="36.0"  cy="36.0"  r="2.4"  fill="#2effee"  stroke="none" />
  <circle id="light_5_4"  cx="44.0"  cy="36.0"  r="2.4"  fill="#2effee"  stroke="none" />
  <circle id="light_6_4"  cx="52.0"  cy="36.0"  r="2.4"  fill="#2effee"  stroke="none" />
  <circle id="light_7_4"  cx="60.0"  cy="36.0"  r="2.4"  fill="#2d2d2d"  stroke="none" />
  <circle id="light_8_4"  cx="68.0"  cy="36.0"  r="2.4"  fill="#2d2d2d"  stroke="none" />
  <circle id="light_9_4"  cx="76.0"  cy="36.0"  r="2.4"  fill="#2effee"  stroke="none" />
  <circle id="light_10_4"  cx="84.0"  cy="36.0"  r="2.4"  fill="#2d2d2d"  stroke="none" />
  <circle id="light_11_4"  cx="92.0"  cy="36.0"  r="2.4"  fill="#2d2d2d"  stroke="none" />
  <circle id="light_12_4"  cx="100.0"  cy="36.0"  r="2.4"  fill="#2d2d2d"  stroke="none" />
  <circle id="light_13_4"  cx="108.0"  cy="36.0"  r="2.4"  fill="#2d2d2d"  stroke="none" />
  <circle id="light_14_4"  cx="116.0"  cy="36.0"  r="2.4"  fill="#2effee"  stroke="none" />
  <circle id="light_15_4"  cx="124.0"  cy="36.0"  r="2.4"  fill="#2d2d2d"  stroke="none" />
  <circle id="light_16_4"  cx="132.0"  cy="36.0"  r="2.4"  fill="#2effee"  stroke="none" />
  <circle id="light_17_4"  cx="140.0"  cy="36.0"  r="2.4"  fill="#2effee"  stroke="none" />
  <circle id="light_18_4"  cx="148.0"  cy="36.0"  r="2.4"  fill="#2effee"  stroke="none" />
  <circle id="light_19_4"  cx="156.0"  cy="36.0"  r="2.4"  fill="#2d2d2d"  stroke="none" />
  <circle id="light_20_4"  cx="164.0"  cy="36.0"  r="2.4"  fill="#2d2d2d"  stroke="none" />
  <circle id="light_21_4"  cx="172.0"  cy="36.0"  r="2.4"  fill="#2effee"  stroke="none" />
  <circle id="light_22_4"  cx="180.0"  cy="36.0"  r="2.4"  fill="#2d2d2d"  stroke="none" />
  <circle id="light_23_4"  cx="188.0"  cy="36.0"  r="2.4"  fill="#2d2d2d"  stroke="none" />
  <circle id="light_24_4"  cx="196.0"  cy="36.0"  r="2.4"  fill="#2effee"  stroke="none" />
  <circle id="light_25_4"  cx="204.0"  cy="36.0"  r="2.4"  fill="#2effee"  stroke="none" />
  <circle id="light_26_4"  cx="212.0"  cy="36.0"  r="2.4"  fill="#2effee"  stroke="none" />
  <circle id="light_27_4"  cx="220.0"  cy="36.0"  r="2.4"  fill="#2d2d2d"  stroke="none" />
  <circle id="light_28_4"  cx="228.0"  cy="36.0"  r="2.4"  fill="#2effee"  stroke="none" />
  <circle id="light_29_4"  cx="236.0"  cy="36.0"  r="2.4"  fill="#2effee"  stroke="none" />
  <circle id="light_30_4"  cx="244.0"  cy="36.0"  r="2.4"  fill="#2effee"  stroke="none" />
  <circle id="light_31_4"  cx="252.0"  cy="36.0"  r="2.4"  fill="#2d2d2d"  stroke="none" />
  <circle id="light_0_5"  cx="4.0"  cy="44.0"  r="2.4"  fill="#2d2d2d"  stroke="none" />
  <circle id="light_1_5"  cx="12.0"  cy="44.0"  r="2.4"  fill="#5c5fff"  stroke="none" />
  <circle id="light_2_5"  cx="20.0"  cy="44.0"  r="2.4"  fill="#2d2d2d"  stroke="none" />
  <circle id="light_3_5"  cx="28.0"  cy="44.0"  r="2.4"  fill="#2d2d2d"  stroke="none" />
  <circle id="light_4_5"  cx="36.0"  cy="44.0"  r="2.4"  fill="#2d2d2d"  stroke="none" />
  <circle id="light_5_5"  cx="44.0"  cy="44.0"  r="2.4"  fill="#5c5fff"  stroke="none" />
  <circle id="light_6_5"  cx="52.0"  cy="44.0"  r="2.4"  fill="#5c5fff"  stroke="none" />
  <circle id="light_7_5"  cx="60.0"  cy="44.0"  r="2.4"  fill="#2d2d2d"  stroke="none" />
  <circle id="light_8_5"  cx="68.0"  cy="44.0"  r="2.4"  fill="#2d2d2d"  stroke="none" />
  <circle id="light_9_5"  cx="76.0"  cy="44.0"  r="2.4"  fill="#2d2d2d"  stroke="none" />
  <circle id="light_10_5"  cx="84.0"  cy="44.0"  r="2.4"  fill="#2d2d2d"  stroke="none" />
  <circle id="light_11_5"  cx="92.0"  cy="44.0"  r="2.4"  fill="#2d2d2d"  stroke="none" />
  <circle id="light_12_5"  cx="100.0"  cy="44.0"  r="2.4"  fill="#2d2d2d"  stroke="none" />
  <circle id="light_13_5"  cx="108.0"  cy="44.0"  r="2.4"  fill="#5c5fff"  stroke="none" />
  <circle id="light_14_5"  cx="116.0"  cy="44.0"  r="2.4"  fill="#2d2d2d"  stroke="none" />
  <circle id="light_15_5"  cx="124.0"  cy="44.0"  r="2.4"  fill="#2d2d2d"  stroke="none" />
  <circle id="light_16_5"  cx="132.0"  cy="44.0"  r="2.4"  fill="#5c5fff"  stroke="none" />
  <circle id="light_17_5"  cx="140.0"  cy="44.0"  r="2.4"  fill="#5c5fff"  stroke="none" />
  <circle id="light_18_5"  cx="148.0"  cy="44.0"  r="2.4"  fill="#2d2d2d"  stroke="none" />
  <circle id="light_19_5"  cx="156.0"  cy="44.0"  r="2.4"  fill="#2d2d2d"  stroke="none" />
  <circle id="light_20_5"  cx="164.0"  cy="44.0"  r="2.4"  fill="#5c5fff"  stroke="none" />
  <circle id="light_21_5"  cx="172.0"  cy="44.0"  r="2.4"  fill="#5c5fff"  stroke="none" />
  <circle id="light_22_5"  cx="180.0"  cy="44.0"  r="2.4"  fill="#2d2d2d"  stroke="none" />
  <circle id="light_23_5"  cx="188.0"  cy="44.0"  r="2.4"  fill="#2d2d2d"  stroke="none" />
  <circle id="light_24_5"  cx="196.0"  cy="44.0"  r="2.4"  fill="#2d2d2d"  stroke="none" />
  <circle id="light_25_5"  cx="204.0"  cy="44.0"  r="2.4"  fill="#2d2d2d"  stroke="none" />
  <circle id="light_26_5"  cx="212.0"  cy="44.0"  r="2.4"  fill="#2d2d2d"  stroke="none" />
  <circle id="light_27_5"  cx="220.0"  cy="44.0"  r="2.4"  fill="#2d2d2d"  stroke="none" />
  <circle id="light_28_5"  cx="228.0"  cy="44.0"  r="2.4"  fill="#2d2d2d"  stroke="none" />
  <circle id="light_29_5"  cx="236.0"  cy="44.0"  r="2.4"  fill="#2d2d2d"  stroke="none" />
  <circle id="light_30_5"  cx="244.0"  cy="44.0"  r="2.4"  fill="#2d2d2d"  stroke="none" />
  <circle id="light_31_5"  cx="252.0"  cy="44.0"  r="2.4"  fill="#2d2d2d"  stroke="none" />
  <circle id="light_0_6"  cx="4.0"  cy="52.0"  r="2.4"  fill="#5c5fff"  stroke="none" />
  <circle id="light_1_6"  cx="12.0"  cy="52.0"  r="2.4"  fill="#2d2d2d"  stroke="none" />
  <circle id="light_2_6"  cx="20.0"  cy="52.0"  r="2.4"  fill="#5c5fff"  stroke="none" />
  <circle id="light_3_6"  cx="28.0"  cy="52.0"  r="2.4"  fill="#2d2d2d"  stroke="none" />
  <circle id="light_4_6"  cx="36.0"  cy="52.0"  r="2.4"  fill="#5c5fff"  stroke="none" />
  <circle id="light_5_6"  cx="44.0"  cy="52.0"  r="2.4"  fill="#2d2d2d"  stroke="none" />
  <circle id="light_6_6"  cx="52.0"  cy="52.0"  r="2.4"  fill="#2d2d2d"  stroke="none" />
  <circle id="light_7_6"  cx="60.0"  cy="52.0"  r="2.4"  fill="#2d2d2d"  stroke="none" />
  <circle id="light_8_6"  cx="68.0"  cy="52.0"  r="2.4"  fill="#2d2d2d"  stroke="none" />
  <circle id="light_9_6"  cx="76.0"  cy="52.0"  r="2.4"  fill="#2d2d2d"  stroke="none" />
  <circle id="light_10_6"  cx="84.0"  cy="52.0"  r="2.4"  fill="#2d2d2d"  stroke="none" />
  <circle id="light_11_6"  cx="92.0"  cy="52.0"  r="2.4"  fill="#2d2d2d"  stroke="none" />
  <circle id="light_12_6"  cx="100.0"  cy="52.0"  r="2.4"  fill="#5c5fff"  stroke="none" />
  <circle id="light_13_6"  cx="108.0"  cy="52.0"  r="2.4"  fill="#2d2d2d"  stroke="none" />
  <circle id="light_14_6"  cx="116.0"  cy="52.0"  r="2.4"  fill="#5c5fff"  stroke="none" />
  <circle id="light_15_6"  cx="124.0"  cy="52.0"  r="2.4"  fill="#2d2d2d"  stroke="none" />
  <circle id="light_16_6"  cx="132.0"  cy="52.0"  r="2.4"  fill="#2d2d2d"  stroke="none" />
  <circle id="light_17_6"  cx="140.0"  cy="52.0"  r="2.4"  fill="#2d2d2d"  stroke="none" />
  <circle id="light_18_6"  cx="148.0"  cy="52.0"  r="2.4"  fill="#5c5fff"  stroke="none" />
  <circle id="light_19_6"  cx="156.0"  cy="52.0"  r="2.4"  fill="#2d2d2d"  stroke="none" />
  <circle id="light_20_6"  cx="164.0"  cy="52.0"  r="2.4"  fill="#2d2d2d"  stroke="none" />
  <circle id="light_21_6"  cx="172.0"  cy="52.0"  r="2.4"  fill="#2d2d2d"  stroke="none" />
  <circle id="light_22_6"  cx="180.0"  cy="52.0"  r="2.4"  fill="#5c5fff"  stroke="none" />
  <circle id="light_23_6"  cx="188.0"  cy="52.0"  r="2.4"  fill="#2d2d2d"  stroke="none" />
  <circle id="light_24_6"  cx="196.0"  cy="52.0"  r="2.4"  fill="#2d2d2d"  stroke="none" />
  <circle id="light_25_6"  cx="204.0"  cy="52.0"  r="2.4"  fill="#2d2d2d"  stroke="none" />
  <circle id="light_26_6"  cx="212.0"  cy="52.0"  r="2.4"  fill="#2d2d2d"  stroke="none" />
  <circle id="light_27_6"  cx="220.0"  cy="52.0"  r="2.4"  fill="#2d2d2d"  stroke="none" />
  <circle id="light_28_6"  cx="228.0"  cy="52.0"  r="2.4"  fill="#2d2d2d"  stroke="none" />
  <circle id="light_29_6"  cx="236.0"  cy="52.0"  r="2.4"  fill="#2d2d2d"  stroke="none" />
  <circle id="light_30_6"  cx="244.0"  cy="52.0"  r="2.4"  fill="#2d2d2d"  stroke="none" />
  <circle id="light_31_6"  cx="252.0"  cy="52.0"  r="2.4"  fill="#2d2d2d"  stroke="none" />
  <circle id="light_0_7"  cx="4.0"  cy="60.0"  r="2.4"  fill="#5c5fff"  stroke="none" />
  <circle id="light_1_7"  cx="12.0"  cy="60.0"  r="2.4"  fill="#2d2d2d"  stroke="none" />
  <circle id="light_2_7"  cx="20.0"  cy="60.0"  r="2.4"  fill="#5c5fff"  stroke="none" />
  <circle id="light_3_7"  cx="28.0"  cy="60.0"  r="2.4"  fill="#2d2d2d"  stroke="none" />
  <circle id="light_4_7"  cx="36.0"  cy="60.0"  r="2.4"  fill="#2d2d2d"  stroke="none" />
  <circle id="light_5_7"  cx="44.0"  cy="60.0"  r="2.4"  fill="#5c5fff"  stroke="none" />
  <circle id="light_6_7"  cx="52.0"  cy="60.0"  r="2.4"  fill="#5c5fff"  stroke="none" />
  <circle id="light_7_7"  cx="60.0"  cy="60.0"  r="2.4"  fill="#2d2d2d"  stroke="none" />
  <circle id="light_8_7"  cx="68.0"  cy="60.0"  r="2.4"  fill="#2d2d2d"  stroke="none" />
  <circle id="light_9_7"  cx="76.0"  cy="60.0"  r="2.4"  fill="#2d2d2d"  stroke="none" />
  <circle id="light_10_7"  cx="84.0"  cy="60.0"  r="2.4"  fill="#2d2d2d"  stroke="none" />
  <circle id="light_11_7"  cx="92.0"  cy="60.0"  r="2.4"  fill="#2d2d2d"  stroke="none" />
  <circle id="light_12_7"  cx="100.0"  cy="60.0"  r="2.4"  fill="#2d2d2d"  stroke="none" />
  <circle id="light_13_7"  cx="108.0"  cy="60.0"  r="2.4"  fill="#5c5fff"  stroke="none" />
  <circle id="light_14_7"  cx="116.0"  cy="60.0"  r="2.4"  fill="#2d2d2d"  stroke="none" />
  <circle id="light_15_7"  cx="124.0"  cy="60.0"  r="2.4"  fill="#2d2d2d"  stroke="none" />
  <circle id="light_16_7"  cx="132.0"  cy="60.0"  r="2.4"  fill="#5c5fff"  stroke="none" />
  <circle id="light_17_7"  cx="140.0"  cy="60.0"  r="2.4"  fill="#5c5fff"  stroke="none" />
  <circle id="light_18_7"  cx="148.0"  cy="60.0"  r="2.4"  fill="#2d2d2d"  stroke="none" />
  <circle id="light_19_7"  cx="156.0"  cy="60.0"  r="2.4"  fill="#2d2d2d"  stroke="none" />
  <circle id="light_20_7"  cx="164.0"  cy="60.0"  r="2.4"  fill="#5c5fff"  stroke="none" />
  <circle id="light_21_7"  cx="172.0"  cy="60.0"  r="2.4"  fill="#5c5fff"  stroke="none" />
  <circle id="light_22_7"  cx="180.0"  cy="60.0"  r="2.4"  fill="#2d2d2d"  stroke="none" />
  <circle id="light_23_7"  cx="188.0"  cy="60.0"  r="2.4"  fill="#2d2d2d"  stroke="none" />
  <circle id="light_24_7"  cx="196.0"  cy="60.0"  r="2.4"  fill="#2d2d2d"  stroke="none" />
  <circle id="light_25_7"  cx="204.0"  cy="60.0"  r="2.4"  fill="#2d2d2d"  stroke="none" />
  <circle id="light_26_7"  cx="212.0"  cy="60.0"  r="2.4"  fill="#2d2d2d"  stroke="none" />
  <circle id="light_27_7"  cx="220.0"  cy="60.0"  r="2.4"  fill="#2d2d2d"  stroke="none" />
  <circle id="light_28_7"  cx="228.0"  cy="60.0"  r="2.4"  fill="#2d2d2d"  stroke="none" />
  <circle id="light_29_7"  cx="236.0"  cy="60.0"  r="2.4"  fill="#2d2d2d"  stroke="none" />
  <circle id="light_30_7"  cx="244.0"  cy="60.0"  r="2.4"  fill="#2d2d2d"  stroke="none" />
  <circle id="light_31_7"  cx="252.0"  cy="60.0"  r="2.4"  fill="#2d2d2d"  stroke="none" />
  <circle id="light_0_8"  cx="4.0"  cy="68.0"  r="2.4"  fill="#5c5fff"  stroke="none" />
  <circle id="light_1_8"  cx="12.0"  cy="68.0"  r="2.4"  fill="#2d2d2d"  stroke="none" />
  <circle id="light_2_8"  cx="20.0"  cy="68.0"  r="2.4"  fill="#5c5fff"  stroke="none" />
  <circle id="light_3_8"  cx="28.0"  cy="68.0"  r="2.4"  fill="#2d2d2d"  stroke="none" />
  <circle id="light_4_8"  cx="36.0"  cy="68.0"  r="2.4"  fill="#5c5fff"  stroke="none" />
  <circle id="light_5_8"  cx="44.0"  cy="68.0"  r="2.4"  fill="#2d2d2d"  stroke="none" />
  <circle id="light_6_8"  cx="52.0"  cy="68.0"  r="2.4"  fill="#2d2d2d"  stroke="none" />
  <circle id="light_7_8"  cx="60.0"  cy="68.0"  r="2.4"  fill="#2d2d2d"  stroke="none" />
  <circle id="light_8_8"  cx="68.0"  cy="68.0"  r="2.4"  fill="#2d2d2d"  stroke="none" />
  <circle id="light_9_8"  cx="76.0"  cy="68.0"  r="2.4"  fill="#2d2d2d"  stroke="none" />
  <circle id="light_10_8"  cx="84.0"  cy="68.0"  r="2.4"  fill="#2d2d2d"  stroke="none" />
  <circle id="light_11_8"  cx="92.0"  cy="68.0"  r="2.4"  fill="#2d2d2d"  stroke="none" />
  <circle id="light_12_8"  cx="100.0"  cy="68.0"  r="2.4"  fill="#5c5fff"  stroke="none" />
  <circle id="light_13_8"  cx="108.0"  cy="68.0"  r="2.4"  fill="#2d2d2d"  stroke="none" />
  <circle id="light_14_8"  cx="116.0"  cy="68.0"  r="2.4"  fill="#5c5fff"  stroke="none" />
  <circle id="light_15_8"  cx="124.0"  cy="68.0"  r="2.4"  fill="#2d2d2d"  stroke="none" />
  <circle id="light_16_8"  cx="132.0"  cy="68.0"  r="2.4"  fill="#2d2d2d"  stroke="none" />
  <circle id="light_17_8"  cx="140.0"  cy="68.0"  r="2.4"  fill="#2d2d2d"  stroke="none" />
  <circle id="light_18_8"  cx="148.0"  cy="68.0"  r="2.4"  fill="#5c5fff"  stroke="none" />
  <circle id="light_19_8"  cx="156.0"  cy="68.0"  r="2.4"  fill="#2d2d2d"  stroke="none" />
  <circle id="light_20_8"  cx="164.0"  cy="68.0"  r="2.4"  fill="#2d2d2d"  stroke="none" />
  <circle id="light_21_8"  cx="172.0"  cy="68.0"  r="2.4"  fill="#2d2d2d"  stroke="none" />
  <circle id="light_22_8"  cx="180.0"  cy="68.0"  r="2.4"  fill="#5c5fff"  stroke="none" />
  <circle id="light_23_8"  cx="188.0"  cy="68.0"  r="2.4"  fill="#2d2d2d"  stroke="none" />
  <circle id="light_24_8"  cx="196.0"  cy="68.0"  r="2.4"  fill="#2d2d2d"  stroke="none" />
  <circle id="light_25_8"  cx="204.0"  cy="68.0"  r="2.4"  fill="#2d2d2d"  stroke="none" />
  <circle id="light_26_8"  cx="212.0"  cy="68.0"  r="2.4"  fill="#2d2d2d"  stroke="none" />
  <circle id="light_27_8"  cx="220.0"  cy="68.0"  r="2.4"  fill="#2d2d2d"  stroke="none" />
  <circle id="light_28_8"  cx="228.0"  cy="68.0"  r="2.4"  fill="#2d2d2d"  stroke="none" />
  <circle id="light_29_8"  cx="236.0"  cy="68.0"  r="2.4"  fill="#2d2d2d"  stroke="none" />
  <circle id="light_30_8"  cx="244.0"  cy="68.0"  r="2.4"  fill="#2d2d2d"  stroke="none" />
  <circle id="light_31_8"  cx="252.0"  cy="68.0"  r="2.4"  fill="#2d2d2d"  stroke="none" />
  <circle id="light_0_9"  cx="4.0"  cy="76.0"  r="2.4"  fill="#2d2d2d"  stroke="none" />
  <circle id="light_1_9"  cx="12.0"  cy="76.0"  r="2.4"  fill="#5c5fff"  stroke="none" />
  <circle id="light_2_9"  cx="20.0"  cy="76.0"  r="2.4"  fill="#2d2d2d"  stroke="none" />
  <circle id="light_3_9"  cx="28.0"  cy="76.0"  r="2.4"  fill="#2d2d2d"  stroke="none" />
  <circle id="light_4_9"  cx="36.0"  cy="76.0"  r="2.4"  fill="#2d2d2d"  stroke="none" />
  <circle id="light_5_9"  cx="44.0"  cy="76.0"  r="2.4"  fill="#5c5fff"  stroke="none" />
  <circle id="light_6_9"  cx="52.0"  cy="76.0"  r="2.4"  fill="#5c5fff"  stroke="none" />
  <circle id="light_7_9"  cx="60.0"  cy="76.0"  r="2.4"  fill="#2d2d2d"  stroke="none" />
  <circle id="light_8_9"  cx="68.0"  cy="76.0"  r="2.4"  fill="#2d2d2d"  stroke="none" />
  <circle id="light_9_9"  cx="76.0"  cy="76.0"  r="2.4"  fill="#2d2d2d"  stroke="none" />
  <circle id="light_10_9"  cx="84.0"  cy="76.0"  r="2.4"  fill="#2d2d2d"  stroke="none" />
  <circle id="light_11_9"  cx="92.0"  cy="76.0"  r="2.4"  fill="#2d2d2d"  stroke="none" />
  <circle id="light_12_9"  cx="100.0"  cy="76.0"  r="2.4"  fill="#2d2d2d"  stroke="none" />
  <circle id="light_13_9"  cx="108.0"  cy="76.0"  r="2.4"  fill="#5c5fff"  stroke="none" />
  <circle id="light_14_9"  cx="116.0"  cy="76.0"  r="2.4"  fill="#2d2d2d"  stroke="none" />
  <circle id="light_15_9"  cx="124.0"  cy="76.0"  r="2.4"  fill="#2d2d2d"  stroke="none" />
  <circle id="light_16_9"  cx="132.0"  cy="76.0"  r="2.4"  fill="#5c5fff"  stroke="none" />
  <circle id="light_17_9"  cx="140.0"  cy="76.0"  r="2.4"  fill="#5c5fff"  stroke="none" />
  <circle id="light_18_9"  cx="148.0"  cy="76.0"  r="2.4"  fill="#2d2d2d"  stroke="none" />
  <circle id="light_19_9"  cx="156.0"  cy="76.0"  r="2.4"  fill="#2d2d2d"  stroke="none" />
  <circle id="light_20_9"  cx="164.0"  cy="76.0"  r="2.4"  fill="#5c5fff"  stroke="none" />
  <circle id="light_21_9"  cx="172.0"  cy="76.0"  r="2.4"  fill="#5c5fff"  stroke="none" />
  <circle id="light_22_9"  cx="180.0"  cy="76.0"  r="2.4"  fill="#2d2d2d"  stroke="none" />
  <circle id="light_23_9"  cx="188.0"  cy="76.0"  r="2.4"  fill="#2d2d2d"  stroke="none" />
  <circle id="light_24_9"  cx="196.0"  cy="76.0"  r="2.4"  fill="#2d2d2d"  stroke="none" />
  <circle id="light_25_9"  cx="204.0"  cy="76.0"  r="2.4"  fill="#2d2d2d"  stroke="none" />
  <circle id="light_26_9"  cx="212.0"  cy="76.0"  r="2.4"  fill="#2d2d2d"  stroke="none" />
  <circle id="light_27_9"  cx="220.0"  cy="76.0"  r="2.4"  fill="#2d2d2d"  stroke="none" />
  <circle id="light_28_9"  cx="228.0"  cy="76.0"  r="2.4"  fill="#2d2d2d"  stroke="none" />
  <circle id="light_29_9"  cx="236.0"  cy="76.0"  r="2.4"  fill="#2d2d2d"  stroke="none" />
  <circle id="light_30_9"  cx="244.0"  cy="76.0"  r="2.4"  fill="#2d2d2d"  stroke="none" />
  <circle id="light_31_9"  cx="252.0"  cy="76.0"  r="2.4"  fill="#2d2d2d"  stroke="none" />
  <circle id="light_0_10"  cx="4.0"  cy="84.0"  r="2.4"  fill="#d40000"  stroke="none" />
  <circle id="light_1_10"  cx="12.0"  cy="84.0"  r="2.4"  fill="#2d2d2d"  stroke="none" />
  <circle id="light_2_10"  cx="20.0"  cy="84.0"  r="2.4"  fill="#2d2d2d"  stroke="none" />
  <circle id="light_3_10"  cx="28.0"  cy="84.0"  r="2.4"  fill="#2d2d2d"  stroke="none" />
  <circle id="light_4_10"  cx="36.0"  cy="84.0"  r="2.4"  fill="#d40000"  stroke="none" />
  <circle id="light_5_10"  cx="44.0"  cy="84.0"  r="2.4"  fill="#2d2d2d"  stroke="none" />
  <circle id="light_6_10"  cx="52.0"  cy="84.0"  r="2.4"  fill="#d40000"  stroke="none" />
  <circle id="light_7_10"  cx="60.0"  cy="84.0"  r="2.4"  fill="#d40000"  stroke="none" />
  <circle id="light_8_10"  cx="68.0"  cy="84.0"  r="2.4"  fill="#d40000"  stroke="none" />
  <circle id="light_9_10"  cx="76.0"  cy="84.0"  r="2.4"  fill="#2d2d2d"  stroke="none" />
  <circle id="light_10_10"  cx="84.0"  cy="84.0"  r="2.4"  fill="#2d2d2d"  stroke="none" />
  <circle id="light_11_10"  cx="92.0"  cy="84.0"  r="2.4"  fill="#d40000"  stroke="none" />
  <circle id="light_12_10"  cx="100.0"  cy="84.0"  r="2.4"  fill="#2d2d2d"  stroke="none" />
  <circle id="light_13_10"  cx="108.0"  cy="84.0"  r="2.4"  fill="#2d2d2d"  stroke="none" />
  <circle id="light_14_10"  cx="116.0"  cy="84.0"  r="2.4"  fill="#2d2d2d"  stroke="none" />
  <circle id="light_15_10"  cx="124.0"  cy="84.0"  r="2.4"  fill="#2d2d2d"  stroke="none" />
  <circle id="light_16_10"  cx="132.0"  cy="84.0"  r="2.4"  fill="#2d2d2d"  stroke="none" />
  <circle id="light_17_10"  cx="140.0"  cy="84.0"  r="2.4"  fill="#2d2d2d"  stroke="none" />
  <circle id="light_18_10"  cx="148.0"  cy="84.0"  r="2.4"  fill="#2d2d2d"  stroke="none" />
  <circle id="light_19_10"  cx="156.0"  cy="84.0"  r="2.4"  fill="#d40000"  stroke="none" />
  <circle id="light_20_10"  cx="164.0"  cy="84.0"  r="2.4"  fill="#2d2d2d"  stroke="none" />
  <circle id="light_21_10"  cx="172.0"  cy="84.0"  r="2.4"  fill="#2d2d2d"  stroke="none" />
  <circle id="light_22_10"  cx="180.0"  cy="84.0"  r="2.4"  fill="#2d2d2d"  stroke="none" />
  <circle id="light_23_10"  cx="188.0"  cy="84.0"  r="2.4"  fill="#2d2d2d"  stroke="none" />
  <circle id="light_24_10"  cx="196.0"  cy="84.0"  r="2.4"  fill="#2d2d2d"  stroke="none" />
  <circle id="light_25_10"  cx="204.0"  cy="84.0"  r="2.4"  fill="#2d2d2d"  stroke="none" />
  <circle id="light_26_10"  cx="212.0"  cy="84.0"  r="2.4"  fill="#2d2d2d"  stroke="none" />
  <circle id="light_27_10"  cx="220.0"  cy="84.0"  r="2.4"  fill="#2d2d2d"  stroke="none" />
  <circle id="light_28_10"  cx="228.0"  cy="84.0"  r="2.4"  fill="#2d2d2d"  stroke="none" />
  <circle id="light_29_10"  cx="236.0"  cy="84.0"  r="2.4"  fill="#2d2d2d"  stroke="none" />
  <circle id="light_30_10"  cx="244.0"  cy="84.0"  r="2.4"  fill="#2d2d2d"  stroke="none" />
  <circle id="light_31_10"  cx="252.0"  cy="84.0"  r="2.4"  fill="#2d2d2d"  stroke="none" />
  <circle id="light_0_11"  cx="4.0"  cy="92.0"  r="2.4"  fill="#d40000"  stroke="none" />
  <circle id="light_1_11"  cx="12.0"  cy="92.0"  r="2.4"  fill="#2d2d2d"  stroke="none" />
  <circle id="light_2_11"  cx="20.0"  cy="92.0"  r="2.4"  fill="#2d2d2d"  stroke="none" />
  <circle id="light_3_11"  cx="28.0"  cy="92.0"  r="2.4"  fill="#2d2d2d"  stroke="none" />
  <circle id="light_4_11"  cx="36.0"  cy="92.0"  r="2.4"  fill="#d40000"  stroke="none" />
  <circle id="light_5_11"  cx="44.0"  cy="92.0"  r="2.4"  fill="#2d2d2d"  stroke="none" />
  <circle id="light_6_11"  cx="52.0"  cy="92.0"  r="2.4"  fill="#d40000"  stroke="none" />
  <circle id="light_7_11"  cx="60.0"  cy="92.0"  r="2.4"  fill="#2d2d2d"  stroke="none" />
  <circle id="light_8_11"  cx="68.0"  cy="92.0"  r="2.4"  fill="#2d2d2d"  stroke="none" />
  <circle id="light_9_11"  cx="76.0"  cy="92.0"  r="2.4"  fill="#2d2d2d"  stroke="none" />
  <circle id="light_10_11"  cx="84.0"  cy="92.0"  r="2.4"  fill="#d40000"  stroke="none" />
  <circle id="light_11_11"  cx="92.0"  cy="92.0"  r="2.4"  fill="#d40000"  stroke="none" />
  <circle id="light_12_11"  cx="100.0"  cy="92.0"  r="2.4"  fill="#2d2d2d"  stroke="none" />
  <circle id="light_13_11"  cx="108.0"  cy="92.0"  r="2.4"  fill="#2d2d2d"  stroke="none" />
  <circle id="light_14_11"  cx="116.0"  cy="92.0"  r="2.4"  fill="#2d2d2d"  stroke="none" />
  <circle id="light_15_11"  cx="124.0"  cy="92.0"  r="2.4"  fill="#2d2d2d"  stroke="none" />
  <circle id="light_16_11"  cx="132.0"  cy="92.0"  r="2.4"  fill="#2d2d2d"  stroke="none" />
  <circle id="light_17_11"  cx="140.0"  cy="92.0"  r="2.4"  fill="#2d2d2d"  stroke="none" />
  <circle id="light_18_11"  cx="148.0"  cy="92.0"  r="2.4"  fill="#d40000"  stroke="none" />
  <circle id="light_19_11"  cx="156.0"  cy="92.0"  r="2.4"  fill="#d40000"  stroke="none" />
  <circle id="light_20_11"  cx="164.0"  cy="92.0"  r="2.4"  fill="#2d2d2d"  stroke="none" />
  <circle id="light_21_11"  cx="172.0"  cy="92.0"  r="2.4"  fill="#2d2d2d"  stroke="none" />
  <circle id="light_22_11"  cx="180.0"  cy="92.0"  r="2.4"  fill="#2d2d2d"  stroke="none" />
  <circle id="light_23_11"  cx="188.0"  cy="92.0"  r="2.4"  fill="#2d2d2d"  stroke="none" />
  <circle id="light_24_11"  cx="196.0"  cy="92.0"  r="2.4"  fill="#2d2d2d"  stroke="none" />
  <circle id="light_25_11"  cx="204.0"  cy="92.0"  r="2.4"  fill="#2d2d2d"  stroke="none" />
  <circle id="light_26_11"  cx="212.0"  cy="92.0"  r="2.4"  fill="#2d2d2d"  stroke="none" />
  <circle id="light_27_11"  cx="220.0"  cy="92.0"  r="2.4"  fill="#2d2d2d"  stroke="none" />
  <circle id="light_28_11"  cx="228.0"  cy="92.0"  r="2.4"  fill="#2d2d2d"  stroke="none" />
  <circle id="light_29_11"  cx="236.0"  cy="92.0"  r="2.4"  fill="#2d2d2d"  stroke="none" />
  <circle id="light_30_11"  cx="244.0"  cy="92.0"  r="2.4"  fill="#2d2d2d"  stroke="none" />
  <circle id="light_31_11"  cx="252.0"  cy="92.0"  r="2.4"  fill="#2d2d2d"  stroke="none" />
  <circle id="light_0_12"  cx="4.0"  cy="100.0"  r="2.4"  fill="#d40000"  stroke="none" />
  <circle id="light_1_12"  cx="12.0"  cy="100.0"  r="2.4"  fill="#2d2d2d"  stroke="none" />
  <circle id="light_2_12"  cx="20.0"  cy="100.0"  r="2.4"  fill="#d40000"  stroke="none" />
  <circle id="light_3_12"  cx="28.0"  cy="100.0"  r="2.4"  fill="#2d2d2d"  stroke="none" />
  <circle id="light_4_12"  cx="36.0"  cy="100.0"  r="2.4"  fill="#d40000"  stroke="none" />
  <circle id="light_5_12"  cx="44.0"  cy="100.0"  r="2.4"  fill="#2d2d2d"  stroke="none" />
  <circle id="light_6_12"  cx="52.0"  cy="100.0"  r="2.4"  fill="#d40000"  stroke="none" />
  <circle id="light_7_12"  cx="60.0"  cy="100.0"  r="2.4"  fill="#d40000"  stroke="none" />
  <circle id="light_8_12"  cx="68.0"  cy="100.0"  r="2.4"  fill="#2d2d2d"  stroke="none" />
  <circle id="light_9_12"  cx="76.0"  cy="100.0"  r="2.4"  fill="#2d2d2d"  stroke="none" />
  <circle id="light_10_12"  cx="84.0"  cy="100.0"  r="2.4"  fill="#2d2d2d"  stroke="none" />
  <circle id="light_11_12"  cx="92.0"  cy="100.0"  r="2.4"  fill="#d40000"  stroke="none" />
  <circle id="light_12_12"  cx="100.0"  cy="100.0"  r="2.4"  fill="#2d2d2d"  stroke="none" />
  <circle id="light_13_12"  cx="108.0"  cy="100.0"  r="2.4"  fill="#2d2d2d"  stroke="none" />
  <circle id="light_14_12"  cx="116.0"  cy="100.0"  r="2.4"  fill="#d40000"  stroke="none" />
  <circle id="light_15_12"  cx="124.0"  cy="100.0"  r="2.4"  fill="#d40000"  stroke="none" />
  <circle id="light_16_12"  cx="132.0"  cy="100.0"  r="2.4"  fill="#d40000"  stroke="none" />
  <circle id="light_17_12"  cx="140.0"  cy="100.0"  r="2.4"  fill="#2d2d2d"  stroke="none" />
  <circle id="light_18_12"  cx="148.0"  cy="100.0"  r="2.4"  fill="#2d2d2d"  stroke="none" />
  <circle id="light_19_12"  cx="156.0"  cy="100.0"  r="2.4"  fill="#d40000"  stroke="none" />
  <circle id="light_20_12"  cx="164.0"  cy="100.0"  r="2.4"  fill="#2d2d2d"  stroke="none" />
  <circle id="light_21_12"  cx="172.0"  cy="100.0"  r="2.4"  fill="#2d2d2d"  stroke="none" />
  <circle id="light_22_12"  cx="180.0"  cy="100.0"  r="2.4"  fill="#2d2d2d"  stroke="none" />
  <circle id="light_23_12"  cx="188.0"  cy="100.0"  r="2.4"  fill="#2d2d2d"  stroke="none" />
  <circle id="light_24_12"  cx="196.0"  cy="100.0"  r="2.4"  fill="#2d2d2d"  stroke="none" />
  <circle id="light_25_12"  cx="204.0"  cy="100.0"  r="2.4"  fill="#2d2d2d"  stroke="none" />
  <circle id="light_26_12"  cx="212.0"  cy="100.0"  r="2.4"  fill="#2d2d2d"  stroke="none" />
  <circle id="light_27_12"  cx="220.0"  cy="100.0"  r="2.4"  fill="#2d2d2d"  stroke="none" />
  <circle id="light_28_12"  cx="228.0"  cy="100.0"  r="2.4"  fill="#2d2d2d"  stroke="none" />
  <circle id="light_29_12"  cx="236.0"  cy="100.0"  r="2.4"  fill="#2d2d2d"  stroke="none" />
  <circle id="light_30_12"  cx="244.0"  cy="100.0"  r="2.4"  fill="#2d2d2d"  stroke="none" />
  <circle id="light_31_12"  cx="252.0"  cy="100.0"  r="2.4"  fill="#2d2d2d"  stroke="none" />
  <circle id="light_0_13"  cx="4.0"  cy="108.0"  r="2.4"  fill="#d40000"  stroke="none" />
  <circle id="light_1_13"  cx="12.0"  cy="108.0"  r="2.4"  fill="#2d2d2d"  stroke="none" />
  <circle id="light_2_13"  cx="20.0"  cy="108.0"  r="2.4"  fill="#d40000"  stroke="none" />
  <circle id="light_3_13"  cx="28.0"  cy="108.0"  r="2.4"  fill="#2d2d2d"  stroke="none" />
  <circle id="light_4_13"  cx="36.0"  cy="108.0"  r="2.4"  fill="#d40000"  stroke="none" />
  <circle id="light_5_13"  cx="44.0"  cy="108.0"  r="2.4"  fill="#2d2d2d"  stroke="none" />
  <circle id="light_6_13"  cx="52.0"  cy="108.0"  r="2.4"  fill="#2d2d2d"  stroke="none" />
  <circle id="light_7_13"  cx="60.0"  cy="108.0"  r="2.4"  fill="#2d2d2d"  stroke="none" />
  <circle id="light_8_13"  cx="68.0"  cy="108.0"  r="2.4"  fill="#d40000"  stroke="none" />
  <circle id="light_9_13"  cx="76.0"  cy="108.0"  r="2.4"  fill="#2d2d2d"  stroke="none" />
  <circle id="light_10_13"  cx="84.0"  cy="108.0"  r="2.4"  fill="#2d2d2d"  stroke="none" />
  <circle id="light_11_13"  cx="92.0"  cy="108.0"  r="2.4"  fill="#d40000"  stroke="none" />
  <circle id="light_12_13"  cx="100.0"  cy="108.0"  r="2.4"  fill="#2d2d2d"  stroke="none" />
  <circle id="light_13_13"  cx="108.0"  cy="108.0"  r="2.4"  fill="#2d2d2d"  stroke="none" />
  <circle id="light_14_13"  cx="116.0"  cy="108.0"  r="2.4"  fill="#2d2d2d"  stroke="none" />
  <circle id="light_15_13"  cx="124.0"  cy="108.0"  r="2.4"  fill="#2d2d2d"  stroke="none" />
  <circle id="light_16_13"  cx="132.0"  cy="108.0"  r="2.4"  fill="#2d2d2d"  stroke="none" />
  <circle id="light_17_13"  cx="140.0"  cy="108.0"  r="2.4"  fill="#2d2d2d"  stroke="none" />
  <circle id="light_18_13"  cx="148.0"  cy="108.0"  r="2.4"  fill="#2d2d2d"  stroke="none" />
  <circle id="light_19_13"  cx="156.0"  cy="108.0"  r="2.4"  fill="#d40000"  stroke="none" />
  <circle id="light_20_13"  cx="164.0"  cy="108.0"  r="2.4"  fill="#2d2d2d"  stroke="none" />
  <circle id="light_21_13"  cx="172.0"  cy="108.0"  r="2.4"  fill="#2d2d2d"  stroke="none" />
  <circle id="light_22_13"  cx="180.0"  cy="108.0"  r="2.4"  fill="#2d2d2d"  stroke="none" />
  <circle id="light_23_13"  cx="188.0"  cy="108.0"  r="2.4"  fill="#2d2d2d"  stroke="none" />
  <circle id="light_24_13"  cx="196.0"  cy="108.0"  r="2.4"  fill="#2d2d2d"  stroke="none" />
  <circle id="light_25_13"  cx="204.0"  cy="108.0"  r="2.4"  fill="#2d2d2d"  stroke="none" />
  <circle id="light_26_13"  cx="212.0"  cy="108.0"  r="2.4"  fill="#2d2d2d"  stroke="none" />
  <circle id="light_27_13"  cx="220.0"  cy="108.0"  r="2.4"  fill="#2d2d2d"  stroke="none" />
  <circle id="light_28_13"  cx="228.0"  cy="108.0"  r="2.4"  fill="#2d2d2d"  stroke="none" />
  <circle id="light_29_13"  cx="236.0"  cy="108.0"  r="2.4"  fill="#2d2d2d"  stroke="none" />
  <circle id="light_30_13"  cx="244.0"  cy="108.0"  r="2.4"  fill="#2d2d2d"  stroke="none" />
  <circle id="light_31_13"  cx="252.0"  cy="108.0"  r="2.4"  fill="#2d2d2d"  stroke="none" />
  <circle id="light_0_14"  cx="4.0"  cy="116.0"  r="2.4"  fill="#2d2d2d"  stroke="none" />
  <circle id="light_1_14"  cx="12.0"  cy="116.0"  r="2.4"  fill="#d40000"  stroke="none" />
  <circle id="light_2_14"  cx="20.0"  cy="116.0"  r="2.4"  fill="#d40000"  stroke="none" />
  <circle id="light_3_14"  cx="28.0"  cy="116.0"  r="2.4"  fill="#d40000"  stroke="none" />
  <circle id="light_4_14"  cx="36.0"  cy="116.0"  r="2.4"  fill="#2d2d2d"  stroke="none" />
  <circle id="light_5_14"  cx="44.0"  cy="116.0"  r="2.4"  fill="#2d2d2d"  stroke="none" />
  <circle id="light_6_14"  cx="52.0"  cy="116.0"  r="2.4"  fill="#d40000"  stroke="none" />
  <circle id="light_7_14"  cx="60.0"  cy="116.0"  r="2.4"  fill="#d40000"  stroke="none" />
  <circle id="light_8_14"  cx="68.0"  cy="116.0"  r="2.4"  fill="#2d2d2d"  stroke="none" />
  <circle id="light_9_14"  cx="76.0"  cy="116.0"  r="2.4"  fill="#2d2d2d"  stroke="none" />
  <circle id="light_10_14"  cx="84.0"  cy="116.0"  r="2.4"  fill="#d40000"  stroke="none" />
  <circle id="light_11_14"  cx="92.0"  cy="116.0"  r="2.4"  fill="#d40000"  stroke="none" />
  <circle id="light_12_14"  cx="100.0"  cy="116.0"  r="2.4"  fill="#d40000"  stroke="none" />
  <circle id="light_13_14"  cx="108.0"  cy="116.0"  r="2.4"  fill="#2d2d2d"  stroke="none" />
  <circle id="light_14_14"  cx="116.0"  cy="116.0"  r="2.4"  fill="#2d2d2d"  stroke="none" />
  <circle id="light_15_14"  cx="124.0"  cy="116.0"  r="2.4"  fill="#2d2d2d"  stroke="none" />
  <circle id="light_16_14"  cx="132.0"  cy="116.0"  r="2.4"  fill="#2d2d2d"  stroke="none" />
  <circle id="light_17_14"  cx="140.0"  cy="116.0"  r="2.4"  fill="#2d2d2d"  stroke="none" />
  <circle id="light_18_14"  cx="148.0"  cy="116.0"  r="2.4"  fill="#d40000"  stroke="none" />
  <circle id="light_19_14"  cx="156.0"  cy="116.0"  r="2.4"  fill="#d40000"  stroke="none" />
  <circle id="light_20_14"  cx="164.0"  cy="116.0"  r="2.4"  fill="#d40000"  stroke="none" />
  <circle id="light_21_14"  cx="172.0"  cy="116.0"  r="2.4"  fill="#2d2d2d"  stroke="none" />
  <circle id="light_22_14"  cx="180.0"  cy="116.0"  r="2.4"  fill="#2d2d2d"  stroke="none" />
  <circle id="light_23_14"  cx="188.0"  cy="116.0"  r="2.4"  fill="#2d2d2d"  stroke="none" />
  <circle id="light_24_14"  cx="196.0"  cy="116.0"  r="2.4"  fill="#2d2d2d"  stroke="none" />
  <circle id="light_25_14"  cx="204.0"  cy="116.0"  r="2.4"  fill="#2d2d2d"  stroke="none" />
  <circle id="light_26_14"  cx="212.0"  cy="116.0"  r="2.4"  fill="#2d2d2d"  stroke="none" />
  <circle id="light_27_14"  cx="220.0"  cy="116.0"  r="2.4"  fill="#2d2d2d"  stroke="none" />
  <circle id="light_28_14"  cx="228.0"  cy="116.0"  r="2.4"  fill="#2d2d2d"  stroke="none" />
  <circle id="light_29_14"  cx="236.0"  cy="116.0"  r="2.4"  fill="#2d2d2d"  stroke="none" />
  <circle id="light_30_14"  cx="244.0"  cy="116.0"  r="2.4"  fill="#2d2d2d"  stroke="none" />
  <circle id="light_31_14"  cx="252.0"  cy="116.0"  r="2.4"  fill="#2d2d2d"  stroke="none" />
  <circle id="light_0_15"  cx="4.0"  cy="124.0"  r="2.4"  fill="#2d2d2d"  stroke="none" />
  <circle id="light_1_15"  cx="12.0"  cy="124.0"  r="2.4"  fill="#2d2d2d"  stroke="none" />
  <circle id="light_2_15"  cx="20.0"  cy="124.0"  r="2.4"  fill="#2d2d2d"  stroke="none" />
  <circle id="light_3_15"  cx="28.0"  cy="124.0"  r="2.4"  fill="#2d2d2d"  stroke="none" />
  <circle id="light_4_15"  cx="36.0"  cy="124.0"  r="2.4"  fill="#2d2d2d"  stroke="none" />
  <circle id="light_5_15"  cx="44.0"  cy="124.0"  r="2.4"  fill="#2d2d2d"  stroke="none" />
  <circle id="light_6_15"  cx="52.0"  cy="124.0"  r="2.4"  fill="#2d2d2d"  stroke="none" />
  <circle id="light_7_15"  cx="60.0"  cy="124.0"  r="2.4"  fill="#2d2d2d"  stroke="none" />
  <circle id="light_8_15"  cx="68.0"  cy="124.0"  r="2.4"  fill="#2d2d2d"  stroke="none" />
  <circle id="light_9_15"  cx="76.0"  cy="124.0"  r="2.4"  fill="#2d2d2d"  stroke="none" />
  <circle id="light_10_15"  cx="84.0"  cy="124.0"  r="2.4"  fill="#2d2d2d"  stroke="none" />
  <circle id="light_11_15"  cx="92.0"  cy="124.0"  r="2.4"  fill="#2d2d2d"  stroke="none" />
  <circle id="light_12_15"  cx="100.0"  cy="124.0"  r="2.4"  fill="#2d2d2d"  stroke="none" />
  <circle id="light_13_15"  cx="108.0"  cy="124.0"  r="2.4"  fill="#2d2d2d"  stroke="none" />
  <circle id="light_14_15"  cx="116.0"  cy="124.0"  r="2.4"  fill="#2d2d2d"  stroke="none" />
  <circle id="light_15_15"  cx="124.0"  cy="124.0"  r="2.4"  fill="#2d2d2d"  stroke="none" />
  <circle id="light_16_15"  cx="132.0"  cy="124.0"  r="2.4"  fill="#2d2d2d"  stroke="none" />
  <circle id="light_17_15"  cx="140.0"  cy="124.0"  r="2.4"  fill="#2d2d2d"  stroke="none" />
  <circle id="light_18_15"  cx="148.0"  cy="124.0"  r="2.4"  fill="#2d2d2d"  stroke="none" />
  <circle id="light_19_15"  cx="156.0"  cy="124.0"  r="2.4"  fill="#2d2d2d"  stroke="none" />
  <circle id="light_20_15"  cx="164.0"  cy="124.0"  r="2.4"  fill="#2d2d2d"  stroke="none" />
  <circle id="light_21_15"  cx="172.0"  cy="124.0"  r="2.4"  fill="#2d2d2d"  stroke="none" />
  <circle id="light_22_15"  cx="180.0"  cy="124.0"  r="2.4"  fill="#2d2d2d"  stroke="none" />
  <circle id="light_23_15"  cx="188.0"  cy="124.0"  r="2.4"  fill="#2d2d2d"  stroke="none" />
  <circle id="light_24_15"  cx="196.0"  cy="124.0"  r="2.4"  fill="#2d2d2d"  stroke="none" />
  <circle id="light_25_15"  cx="204.0"  cy="124.0"  r="2.4"  fill="#2d2d2d"  stroke="none" />
  <circle id="light_26_15"  cx="212.0"  cy="124.0"  r="2.4"  fill="#2d2d2d"  stroke="none" />
  <circle id="light_27_15"  cx="220.0"  cy="124.0"  r="2.4"  fill="#2d2d2d"  stroke="none" />
  <circle id="light_28_15"  cx="228.0"  cy="124.0"  r="2.4"  fill="#2d2d2d"  stroke="none" />
  <circle id="light_29_15"  cx="236.0"  cy="124.0"  r="2.4"  fill="#2d2d2d"  stroke="none" />
  <circle id="light_30_15"  cx="244.0"  cy="124.0"  r="2.4"  fill="#2d2d2d"  stroke="none" />
  <circle id="light_31_15"  cx="252.0"  cy="124.0"  r="2.4"  fill="#2d2d2d"  stroke="none" />
</svg>